<svg id="Layer_1" enable-background="new 0 0 508.021 508.021" height="512" viewBox="0 0 508.021 508.021" width="512" xmlns="http://www.w3.org/2000/svg"><path d="m233.79 316.114c-8.836 0-16-7.164-16-16s7.164-16 16-16c42.439 0 76.967-34.527 76.967-76.967s-34.527-76.967-76.967-76.967h-124.823c-42.44 0-76.967 34.527-76.967 76.966 0 42.44 34.527 76.967 76.967 76.967h72.298c8.836 0 16 7.164 16 16s-7.164 16-16 16h-72.298c-60.085.001-108.967-48.882-108.967-108.966 0-60.085 48.882-108.967 108.967-108.967h124.823c60.084 0 108.967 48.882 108.967 108.967-.001 60.084-48.883 108.967-108.967 108.967z" fill="#ed4040"/><path d="m399.055 409.842h-124.823c-60.084 0-108.967-48.882-108.967-108.967s48.882-108.967 108.967-108.967c8.836 0 16 7.164 16 16s-7.164 16-16 16c-42.439 0-76.967 34.527-76.967 76.967s34.527 76.967 76.967 76.967h124.823c42.439 0 76.967-34.527 76.967-76.967s-34.527-76.967-76.967-76.967h-72.299c-8.836 0-16-7.164-16-16s7.164-16 16-16h72.299c60.084 0 108.967 48.882 108.967 108.967-.001 60.084-48.883 108.967-108.967 108.967z" fill="#ed4040"/><path d="m233.79 98.18h-33.051v32h33.051c42.439 0 76.967 34.527 76.967 76.967 0 42.439-34.527 76.967-76.967 76.967-8.836 0-16 7.164-16 16s7.164 16 16 16c60.084 0 108.967-48.882 108.967-108.967-.001-60.085-48.883-108.967-108.967-108.967z" fill="#ed4040"/></svg>